<svg width="61" height="60" viewBox="0 0 61 60" fill="none" xmlns="http://www.w3.org/2000/svg">
<g clip-path="url(#clip0_132_72)">
<path d="M10.8021 0H50.1979C56.1708 0 61 4.8718 61 10.8974V49.1026C61 55.1282 56.1708 60 50.1979 60H10.8021C4.82917 60 0 55.1282 0 49.1026V10.8974C0 4.8718 4.82917 0 10.8021 0Z" fill="#001E36"/>
<path d="M13.7251 42.0769V15.6922C13.7251 15.5128 13.8013 15.4102 13.9793 15.4102C14.4113 15.4102 14.818 15.4102 15.4026 15.3846C16.0126 15.3589 16.648 15.3589 17.3343 15.3333C18.0205 15.3076 18.7576 15.3076 19.5455 15.282C20.3334 15.2563 21.0959 15.2563 21.8584 15.2563C23.9426 15.2563 25.6709 15.5128 27.0943 16.0512C28.3651 16.4871 29.5343 17.2051 30.5001 18.1538C31.3134 18.9743 31.9488 19.9743 32.3555 21.0769C32.7368 22.1538 32.9401 23.2563 32.9401 24.4102C32.9401 26.6153 32.4318 28.4358 31.4151 29.8717C30.3984 31.3076 28.9751 32.3846 27.323 32.9999C25.5947 33.641 23.6884 33.8717 21.6043 33.8717C20.9943 33.8717 20.5876 33.8717 20.3334 33.8461C20.0793 33.8204 19.7234 33.8204 19.2405 33.8204V42.0512C19.2659 42.2307 19.1388 42.3846 18.9609 42.4102C18.9355 42.4102 18.9101 42.4102 18.8593 42.4102H14.0301C13.8268 42.4102 13.7251 42.3076 13.7251 42.0769ZM19.2659 20.3589V28.9743C19.6218 28.9999 19.9522 29.0256 20.2572 29.0256H21.6043C22.5955 29.0256 23.5868 28.8717 24.5272 28.564C25.3405 28.3333 26.0522 27.8461 26.6113 27.2051C27.1451 26.564 27.3993 25.6922 27.3993 24.564C27.4247 23.7692 27.2213 22.9743 26.8147 22.282C26.3826 21.6153 25.7726 21.1025 25.0355 20.8204C24.0951 20.4358 23.0784 20.282 22.0363 20.3076C21.3755 20.3076 20.7909 20.3076 20.308 20.3333C19.7997 20.3076 19.4438 20.3333 19.2659 20.3589Z" fill="#31A8FF"/>
<path d="M48.7999 27.4101C48.0374 26.9998 47.2241 26.7178 46.3599 26.5383C45.4195 26.3332 44.4791 26.205 43.5132 26.205C43.0049 26.1793 42.4712 26.2563 41.9882 26.3845C41.6578 26.4614 41.3782 26.6409 41.2003 26.8973C41.0732 27.1024 40.997 27.3588 40.997 27.5896C40.997 27.8204 41.0987 28.0511 41.2512 28.2563C41.4799 28.5383 41.7849 28.7691 42.1153 28.9486C42.6999 29.2563 43.3099 29.5383 43.9199 29.7947C45.2924 30.2563 46.6141 30.8973 47.8341 31.6665C48.6728 32.205 49.3591 32.9229 49.842 33.7947C50.2487 34.6152 50.452 35.5127 50.4266 36.4357C50.452 37.6409 50.0962 38.846 49.4353 39.846C48.7237 40.8716 47.7324 41.6665 46.5887 42.1281C45.3432 42.6665 43.8182 42.9486 41.9882 42.9486C40.8191 42.9486 39.6753 42.846 38.5316 42.6152C37.642 42.4614 36.7524 42.1793 35.9391 41.7947C35.7612 41.6922 35.6341 41.5127 35.6595 41.3075V36.846C35.6595 36.7691 35.6849 36.6665 35.7612 36.6152C35.8374 36.564 35.9137 36.5896 35.9899 36.6409C36.9812 37.2306 38.0232 37.6409 39.1416 37.8973C40.1074 38.1537 41.1241 38.2819 42.1407 38.2819C43.1066 38.2819 43.7928 38.1537 44.2503 37.9229C44.657 37.7434 44.9366 37.3075 44.9366 36.846C44.9366 36.487 44.7332 36.1537 44.3266 35.8204C43.9199 35.487 43.0812 35.1024 41.8357 34.6152C40.5395 34.1537 39.3449 33.5383 38.2266 32.7691C37.4387 32.205 36.7778 31.4614 36.2949 30.5896C35.8882 29.7691 35.6849 28.8716 35.7103 27.9742C35.7103 26.8716 36.0153 25.8204 36.5745 24.8716C37.2099 23.846 38.1503 23.0255 39.2432 22.5127C40.4378 21.8973 41.9374 21.6152 43.742 21.6152C44.7841 21.6152 45.8516 21.6922 46.8937 21.846C47.6562 21.9486 48.3932 22.1537 49.0795 22.4357C49.1812 22.4614 49.2828 22.564 49.3337 22.6665C49.3591 22.7691 49.3845 22.8716 49.3845 22.9742V27.1537C49.3845 27.2563 49.3337 27.3588 49.2574 27.4101C49.0287 27.4614 48.9016 27.4614 48.7999 27.4101Z" fill="#31A8FF"/>
</g>
<defs>
<clipPath id="clip0_132_72">
<rect width="61" height="60" fill="white"/>
</clipPath>
</defs>
</svg>
