<svg width="1832" height="139" viewBox="0 0 1832 139" fill="none" xmlns="http://www.w3.org/2000/svg">
<path d="M117.8 73.05C116.9 80.85 114.15 87.5 109.55 93C104.95 98.5 98.7 102.7 90.8 105.6C82.9 108.5 73.5 109.95 62.6 109.95C53.5 109.95 45.15 108.9 37.55 106.8C30.05 104.7 23.55 101.55 18.05 97.35C12.65 93.15 8.45 87.95 5.45 81.75C2.45 75.45 0.95 68.1 0.95 59.7C0.95 51.3 2.45 43.95 5.45 37.65C8.45 31.35 12.65 26.1 18.05 21.9C23.55 17.6 30.05 14.4 37.55 12.3C45.15 10.1 53.5 9 62.6 9C73.5 9 82.9 10.5 90.8 13.5C98.8 16.5 105.1 20.8 109.7 26.4C114.3 31.9 117 38.6 117.8 46.5H98C96.7 42.3 94.5 38.7 91.4 35.7C88.4 32.6 84.5 30.25 79.7 28.65C74.9 27.05 69.2 26.25 62.6 26.25C54.4 26.25 47.2 27.55 41 30.15C34.8 32.65 30 36.4 26.6 41.4C23.2 46.3 21.5 52.4 21.5 59.7C21.5 66.9 23.2 72.95 26.6 77.85C30 82.75 34.8 86.5 41 89.1C47.2 91.6 54.4 92.85 62.6 92.85C69.2 92.85 74.85 92.05 79.55 90.45C84.35 88.85 88.25 86.55 91.25 83.55C94.35 80.55 96.6 77.05 98 73.05H117.8ZM134.715 33.45H154.215V108H134.715V33.45ZM182.865 49.5C177.265 49.5 172.415 50.6 168.315 52.8C164.215 54.9 160.915 57.5 158.415 60.6C155.915 63.7 154.165 66.7 153.165 69.6L153.015 61.35C153.115 60.15 153.515 58.4 154.215 56.1C154.915 53.7 155.965 51.15 157.365 48.45C158.765 45.65 160.615 43 162.915 40.5C165.215 37.9 168.015 35.8 171.315 34.2C174.615 32.6 178.465 31.8 182.865 31.8V49.5ZM262.87 83.25H281.77C280.97 88.35 278.82 92.9 275.32 96.9C271.92 100.9 267.27 104.05 261.37 106.35C255.47 108.65 248.27 109.8 239.77 109.8C230.27 109.8 221.87 108.3 214.57 105.3C207.27 102.2 201.57 97.75 197.47 91.95C193.37 86.15 191.32 79.15 191.32 70.95C191.32 62.75 193.32 55.75 197.32 49.95C201.32 44.05 206.87 39.55 213.97 36.45C221.17 33.35 229.57 31.8 239.17 31.8C248.97 31.8 257.12 33.35 263.62 36.45C270.12 39.55 274.92 44.25 278.02 50.55C281.22 56.75 282.57 64.7 282.07 74.4H210.97C211.47 78.2 212.87 81.65 215.17 84.75C217.57 87.85 220.77 90.3 224.77 92.1C228.87 93.9 233.72 94.8 239.32 94.8C245.52 94.8 250.67 93.75 254.77 91.65C258.97 89.45 261.67 86.65 262.87 83.25ZM238.27 46.65C231.07 46.65 225.22 48.25 220.72 51.45C216.22 54.55 213.32 58.4 212.02 63H262.72C262.22 58 259.82 54.05 255.52 51.15C251.32 48.15 245.57 46.65 238.27 46.65ZM332.88 109.65C325.48 109.65 318.73 108.05 312.63 104.85C306.63 101.55 301.83 97 298.23 91.2C294.73 85.3 292.98 78.5 292.98 70.8C292.98 62.9 294.78 56.05 298.38 50.25C301.98 44.45 306.83 39.95 312.93 36.75C319.13 33.45 326.13 31.8 333.93 31.8C342.53 31.8 349.43 33.55 354.63 37.05C359.93 40.45 363.78 45.1 366.18 51C368.58 56.9 369.78 63.5 369.78 70.8C369.78 75.2 369.08 79.7 367.68 84.3C366.28 88.8 364.13 93 361.23 96.9C358.33 100.7 354.53 103.8 349.83 106.2C345.13 108.5 339.48 109.65 332.88 109.65ZM339.18 94.65C345.08 94.65 350.18 93.65 354.48 91.65C358.78 89.65 362.08 86.85 364.38 83.25C366.68 79.65 367.83 75.5 367.83 70.8C367.83 65.7 366.63 61.4 364.23 57.9C361.93 54.3 358.63 51.6 354.33 49.8C350.13 47.9 345.08 46.95 339.18 46.95C330.88 46.95 324.43 49.15 319.83 53.55C315.23 57.85 312.93 63.6 312.93 70.8C312.93 75.6 314.03 79.8 316.23 83.4C318.43 86.9 321.48 89.65 325.38 91.65C329.38 93.65 333.98 94.65 339.18 94.65ZM367.83 33.45H387.33V108H369.18C369.18 108 369.03 107.05 368.73 105.15C368.53 103.15 368.33 100.65 368.13 97.65C367.93 94.65 367.83 91.7 367.83 88.8V33.45ZM399.729 33.45H457.629V48.6H399.729V33.45ZM418.929 13.05H438.429V108H418.929V13.05ZM492.368 0.749995V17.85H469.718V0.749995H492.368ZM471.218 33.45H490.718V108H471.218V33.45ZM551.254 95.25H544.204L571.504 33.45H592.804L556.954 108H538.504L503.404 33.45H524.854L551.254 95.25ZM668.778 83.25H687.678C686.878 88.35 684.728 92.9 681.228 96.9C677.828 100.9 673.178 104.05 667.278 106.35C661.378 108.65 654.178 109.8 645.678 109.8C636.178 109.8 627.778 108.3 620.478 105.3C613.178 102.2 607.478 97.75 603.378 91.95C599.278 86.15 597.228 79.15 597.228 70.95C597.228 62.75 599.228 55.75 603.228 49.95C607.228 44.05 612.778 39.55 619.878 36.45C627.078 33.35 635.478 31.8 645.078 31.8C654.878 31.8 663.028 33.35 669.528 36.45C676.028 39.55 680.828 44.25 683.928 50.55C687.128 56.75 688.478 64.7 687.978 74.4H616.878C617.378 78.2 618.778 81.65 621.078 84.75C623.478 87.85 626.678 90.3 630.678 92.1C634.778 93.9 639.628 94.8 645.228 94.8C651.428 94.8 656.578 93.75 660.678 91.65C664.878 89.45 667.578 86.65 668.778 83.25ZM644.178 46.65C636.978 46.65 631.128 48.25 626.628 51.45C622.128 54.55 619.228 58.4 617.928 63H668.628C668.128 58 665.728 54.05 661.428 51.15C657.228 48.15 651.478 46.65 644.178 46.65ZM775.57 108L732.67 10.95H754.72L791.47 98.55H784.57L821.17 10.95H842.92L800.47 108H775.57ZM877.329 0.749995V17.85H854.679V0.749995H877.329ZM856.179 33.45H875.679V108H856.179V33.45ZM892.115 83.25H910.115C911.215 86.65 913.465 89.45 916.865 91.65C920.365 93.75 924.915 94.8 930.515 94.8C934.315 94.8 937.265 94.45 939.365 93.75C941.465 93.05 942.915 92.05 943.715 90.75C944.515 89.35 944.915 87.8 944.915 86.1C944.915 84 944.265 82.4 942.965 81.3C941.665 80.1 939.665 79.15 936.965 78.45C934.265 77.75 930.815 77.1 926.615 76.5C922.415 75.8 918.365 74.95 914.465 73.95C910.565 72.95 907.115 71.65 904.115 70.05C901.115 68.35 898.715 66.25 896.915 63.75C895.215 61.15 894.365 58 894.365 54.3C894.365 50.7 895.215 47.5 896.915 44.7C898.715 41.9 901.165 39.55 904.265 37.65C907.465 35.75 911.165 34.3 915.365 33.3C919.665 32.3 924.265 31.8 929.165 31.8C936.565 31.8 942.715 32.9 947.615 35.1C952.515 37.2 956.165 40.2 958.565 44.1C961.065 47.9 962.315 52.3 962.315 57.3H945.065C944.265 53.6 942.665 50.95 940.265 49.35C937.865 47.65 934.165 46.8 929.165 46.8C924.265 46.8 920.565 47.55 918.065 49.05C915.565 50.55 914.315 52.6 914.315 55.2C914.315 57.3 915.065 58.95 916.565 60.15C918.165 61.25 920.465 62.15 923.465 62.85C926.565 63.55 930.415 64.3 935.015 65.1C938.915 65.9 942.615 66.8 946.115 67.8C949.715 68.8 952.915 70.1 955.715 71.7C958.515 73.2 960.715 75.25 962.315 77.85C964.015 80.35 964.865 83.55 964.865 87.45C964.865 92.25 963.465 96.3 960.665 99.6C957.965 102.9 954.065 105.45 948.965 107.25C943.865 108.95 937.765 109.8 930.665 109.8C924.365 109.8 918.915 109.15 914.315 107.85C909.815 106.45 906.065 104.7 903.065 102.6C900.065 100.4 897.715 98.1 896.015 95.7C894.415 93.2 893.315 90.85 892.715 88.65C892.115 86.45 891.915 84.65 892.115 83.25ZM1066.03 108H1046.53V33.45H1066.03V108ZM1047.58 72.15L1047.73 77.25C1047.53 78.65 1047.03 80.7 1046.23 83.4C1045.43 86 1044.18 88.8 1042.48 91.8C1040.88 94.8 1038.78 97.7 1036.18 100.5C1033.58 103.2 1030.38 105.45 1026.58 107.25C1022.78 108.95 1018.28 109.8 1013.08 109.8C1008.98 109.8 1004.93 109.3 1000.93 108.3C997.033 107.3 993.483 105.65 990.283 103.35C987.083 100.95 984.533 97.75 982.633 93.75C980.733 89.75 979.783 84.7 979.783 78.6V33.45H999.283V75.3C999.283 80.1 1000.03 83.9 1001.53 86.7C1003.13 89.4 1005.43 91.3 1008.43 92.4C1011.43 93.5 1014.98 94.05 1019.08 94.05C1024.48 94.05 1029.13 92.9 1033.03 90.6C1036.93 88.2 1040.08 85.3 1042.48 81.9C1044.98 78.5 1046.68 75.25 1047.58 72.15ZM1120.09 109.65C1112.69 109.65 1105.94 108.05 1099.84 104.85C1093.84 101.55 1089.04 97 1085.44 91.2C1081.94 85.3 1080.19 78.5 1080.19 70.8C1080.19 62.9 1081.99 56.05 1085.59 50.25C1089.19 44.45 1094.04 39.95 1100.14 36.75C1106.34 33.45 1113.34 31.8 1121.14 31.8C1129.74 31.8 1136.64 33.55 1141.84 37.05C1147.14 40.45 1150.99 45.1 1153.39 51C1155.79 56.9 1156.99 63.5 1156.99 70.8C1156.99 75.2 1156.29 79.7 1154.89 84.3C1153.49 88.8 1151.34 93 1148.44 96.9C1145.54 100.7 1141.74 103.8 1137.04 106.2C1132.34 108.5 1126.69 109.65 1120.09 109.65ZM1126.39 94.65C1132.29 94.65 1137.39 93.65 1141.69 91.65C1145.99 89.65 1149.29 86.85 1151.59 83.25C1153.89 79.65 1155.04 75.5 1155.04 70.8C1155.04 65.7 1153.84 61.4 1151.44 57.9C1149.14 54.3 1145.84 51.6 1141.54 49.8C1137.34 47.9 1132.29 46.95 1126.39 46.95C1118.09 46.95 1111.64 49.15 1107.04 53.55C1102.44 57.85 1100.14 63.6 1100.14 70.8C1100.14 75.6 1101.24 79.8 1103.44 83.4C1105.64 86.9 1108.69 89.65 1112.59 91.65C1116.59 93.65 1121.19 94.65 1126.39 94.65ZM1155.04 33.45H1174.54V108H1156.39C1156.39 108 1156.24 107.05 1155.94 105.15C1155.74 103.15 1155.54 100.65 1155.34 97.65C1155.14 94.65 1155.04 91.7 1155.04 88.8V33.45ZM1193.69 3.45H1213.19V108H1193.69V3.45ZM1327.14 10.95C1338.04 10.95 1347.14 12.25 1354.44 14.85C1361.74 17.45 1367.54 21 1371.84 25.5C1376.24 29.9 1379.34 35 1381.14 40.8C1383.04 46.6 1383.99 52.7 1383.99 59.1C1383.99 65.5 1382.94 71.65 1380.84 77.55C1378.84 83.45 1375.59 88.7 1371.09 93.3C1366.69 97.8 1360.84 101.4 1353.54 104.1C1346.34 106.7 1337.54 108 1327.14 108H1271.64V10.95H1327.14ZM1291.59 90.9H1326.69C1333.89 90.9 1339.84 90.05 1344.54 88.35C1349.34 86.55 1353.14 84.15 1355.94 81.15C1358.74 78.15 1360.74 74.75 1361.94 70.95C1363.14 67.15 1363.74 63.2 1363.74 59.1C1363.74 55 1363.14 51.1 1361.94 47.4C1360.74 43.7 1358.74 40.4 1355.94 37.5C1353.14 34.6 1349.34 32.3 1344.54 30.6C1339.84 28.9 1333.89 28.05 1326.69 28.05H1291.59V90.9ZM1468.88 83.25H1487.78C1486.98 88.35 1484.83 92.9 1481.33 96.9C1477.93 100.9 1473.28 104.05 1467.38 106.35C1461.48 108.65 1454.28 109.8 1445.78 109.8C1436.28 109.8 1427.88 108.3 1420.58 105.3C1413.28 102.2 1407.58 97.75 1403.48 91.95C1399.38 86.15 1397.33 79.15 1397.33 70.95C1397.33 62.75 1399.33 55.75 1403.33 49.95C1407.33 44.05 1412.88 39.55 1419.98 36.45C1427.18 33.35 1435.58 31.8 1445.18 31.8C1454.98 31.8 1463.13 33.35 1469.63 36.45C1476.13 39.55 1480.93 44.25 1484.03 50.55C1487.23 56.75 1488.58 64.7 1488.08 74.4H1416.98C1417.48 78.2 1418.88 81.65 1421.18 84.75C1423.58 87.85 1426.78 90.3 1430.78 92.1C1434.88 93.9 1439.73 94.8 1445.33 94.8C1451.53 94.8 1456.68 93.75 1460.78 91.65C1464.98 89.45 1467.68 86.65 1468.88 83.25ZM1444.28 46.65C1437.08 46.65 1431.23 48.25 1426.73 51.45C1422.23 54.55 1419.33 58.4 1418.03 63H1468.73C1468.23 58 1465.83 54.05 1461.53 51.15C1457.33 48.15 1451.58 46.65 1444.28 46.65ZM1499.59 83.25H1517.59C1518.69 86.65 1520.94 89.45 1524.34 91.65C1527.84 93.75 1532.39 94.8 1537.99 94.8C1541.79 94.8 1544.74 94.45 1546.84 93.75C1548.94 93.05 1550.39 92.05 1551.19 90.75C1551.99 89.35 1552.39 87.8 1552.39 86.1C1552.39 84 1551.74 82.4 1550.44 81.3C1549.14 80.1 1547.14 79.15 1544.44 78.45C1541.74 77.75 1538.29 77.1 1534.09 76.5C1529.89 75.8 1525.84 74.95 1521.94 73.95C1518.04 72.95 1514.59 71.65 1511.59 70.05C1508.59 68.35 1506.19 66.25 1504.39 63.75C1502.69 61.15 1501.84 58 1501.84 54.3C1501.84 50.7 1502.69 47.5 1504.39 44.7C1506.19 41.9 1508.64 39.55 1511.74 37.65C1514.94 35.75 1518.64 34.3 1522.84 33.3C1527.14 32.3 1531.74 31.8 1536.64 31.8C1544.04 31.8 1550.19 32.9 1555.09 35.1C1559.99 37.2 1563.64 40.2 1566.04 44.1C1568.54 47.9 1569.79 52.3 1569.79 57.3H1552.54C1551.74 53.6 1550.14 50.95 1547.74 49.35C1545.34 47.65 1541.64 46.8 1536.64 46.8C1531.74 46.8 1528.04 47.55 1525.54 49.05C1523.04 50.55 1521.79 52.6 1521.79 55.2C1521.79 57.3 1522.54 58.95 1524.04 60.15C1525.64 61.25 1527.94 62.15 1530.94 62.85C1534.04 63.55 1537.89 64.3 1542.49 65.1C1546.39 65.9 1550.09 66.8 1553.59 67.8C1557.19 68.8 1560.39 70.1 1563.19 71.7C1565.99 73.2 1568.19 75.25 1569.79 77.85C1571.49 80.35 1572.34 83.55 1572.34 87.45C1572.34 92.25 1570.94 96.3 1568.14 99.6C1565.44 102.9 1561.54 105.45 1556.44 107.25C1551.34 108.95 1545.24 109.8 1538.14 109.8C1531.84 109.8 1526.39 109.15 1521.79 107.85C1517.29 106.45 1513.54 104.7 1510.54 102.6C1507.54 100.4 1505.19 98.1 1503.49 95.7C1501.89 93.2 1500.79 90.85 1500.19 88.65C1499.59 86.45 1499.39 84.65 1499.59 83.25ZM1609.6 0.749995V17.85H1586.95V0.749995H1609.6ZM1588.45 33.45H1607.95V108H1588.45V33.45ZM1664.59 96.6C1656.49 96.6 1649.34 95.4 1643.14 93C1637.04 90.5 1632.29 86.85 1628.89 82.05C1625.49 77.25 1623.79 71.45 1623.79 64.65C1623.79 57.95 1625.44 52.15 1628.74 47.25C1632.04 42.35 1636.74 38.55 1642.84 35.85C1649.04 33.15 1656.29 31.8 1664.59 31.8C1666.89 31.8 1669.09 31.95 1671.19 32.25C1673.39 32.55 1675.54 32.95 1677.64 33.45L1715.29 33.6V48.3C1710.19 48.4 1704.99 47.8 1699.69 46.5C1694.49 45.1 1689.89 43.6 1685.89 42L1685.44 40.95C1688.84 42.55 1692.04 44.55 1695.04 46.95C1698.04 49.25 1700.44 51.95 1702.24 55.05C1704.14 58.05 1705.09 61.55 1705.09 65.55C1705.09 72.05 1703.44 77.65 1700.14 82.35C1696.84 86.95 1692.14 90.5 1686.04 93C1680.04 95.4 1672.89 96.6 1664.59 96.6ZM1689.64 138.75V135.15C1689.64 130.55 1688.14 127.35 1685.14 125.55C1682.24 123.75 1678.24 122.85 1673.14 122.85H1649.89C1645.39 122.85 1641.59 122.5 1638.49 121.8C1635.49 121.1 1633.09 120.1 1631.29 118.8C1629.49 117.5 1628.19 115.95 1627.39 114.15C1626.59 112.45 1626.19 110.6 1626.19 108.6C1626.19 104.6 1627.49 101.6 1630.09 99.6C1632.69 97.5 1636.19 96.1 1640.59 95.4C1644.99 94.7 1649.84 94.55 1655.14 94.95L1664.59 96.6C1658.29 96.8 1653.59 97.35 1650.49 98.25C1647.49 99.05 1645.99 100.7 1645.99 103.2C1645.99 104.7 1646.59 105.9 1647.79 106.8C1648.99 107.6 1650.69 108 1652.89 108H1677.34C1684.04 108 1689.74 108.7 1694.44 110.1C1699.24 111.6 1702.89 114.05 1705.39 117.45C1707.89 120.95 1709.14 125.7 1709.14 131.7V138.75H1689.64ZM1664.59 82.5C1668.89 82.5 1672.64 81.8 1675.84 80.4C1679.14 79 1681.69 77 1683.49 74.4C1685.29 71.7 1686.19 68.5 1686.19 64.8C1686.19 61 1685.29 57.75 1683.49 55.05C1681.69 52.35 1679.19 50.3 1675.99 48.9C1672.79 47.4 1668.99 46.65 1664.59 46.65C1660.29 46.65 1656.49 47.4 1653.19 48.9C1649.89 50.3 1647.34 52.35 1645.54 55.05C1643.74 57.75 1642.84 61 1642.84 64.8C1642.84 68.5 1643.74 71.7 1645.54 74.4C1647.34 77 1649.84 79 1653.04 80.4C1656.34 81.8 1660.19 82.5 1664.59 82.5ZM1728.03 33.45H1747.53V108H1728.03V33.45ZM1782.18 31.8C1786.78 31.8 1791.03 32.4 1794.93 33.6C1798.83 34.8 1802.23 36.65 1805.13 39.15C1808.03 41.65 1810.28 44.85 1811.88 48.75C1813.48 52.55 1814.28 57.1 1814.28 62.4V108H1794.78V65.85C1794.78 59.55 1793.23 54.95 1790.13 52.05C1787.13 49.05 1782.18 47.55 1775.28 47.55C1770.08 47.55 1765.38 48.55 1761.18 50.55C1756.98 52.55 1753.58 55.1 1750.98 58.2C1748.38 61.2 1746.88 64.35 1746.48 67.65L1746.33 60C1746.83 56.5 1747.98 53.1 1749.78 49.8C1751.58 46.5 1753.98 43.5 1756.98 40.8C1760.08 38 1763.73 35.8 1767.93 34.2C1772.13 32.6 1776.88 31.8 1782.18 31.8ZM1899.98 83.25H1918.88C1918.08 88.35 1915.93 92.9 1912.43 96.9C1909.03 100.9 1904.38 104.05 1898.48 106.35C1892.58 108.65 1885.38 109.8 1876.88 109.8C1867.38 109.8 1858.98 108.3 1851.68 105.3C1844.38 102.2 1838.68 97.75 1834.58 91.95C1830.48 86.15 1828.43 79.15 1828.43 70.95C1828.43 62.75 1830.43 55.75 1834.43 49.95C1838.43 44.05 1843.98 39.55 1851.08 36.45C1858.28 33.35 1866.68 31.8 1876.28 31.8C1886.08 31.8 1894.23 33.35 1900.73 36.45C1907.23 39.55 1912.03 44.25 1915.13 50.55C1918.33 56.75 1919.68 64.7 1919.18 74.4H1848.08C1848.58 78.2 1849.98 81.65 1852.28 84.75C1854.68 87.85 1857.88 90.3 1861.88 92.1C1865.98 93.9 1870.83 94.8 1876.43 94.8C1882.63 94.8 1887.78 93.75 1891.88 91.65C1896.08 89.45 1898.78 86.65 1899.98 83.25ZM1875.38 46.65C1868.18 46.65 1862.33 48.25 1857.83 51.45C1853.33 54.55 1850.43 58.4 1849.13 63H1899.83C1899.33 58 1896.93 54.05 1892.63 51.15C1888.43 48.15 1882.68 46.65 1875.38 46.65ZM1933.69 33.45H1953.19V108H1933.69V33.45ZM1981.84 49.5C1976.24 49.5 1971.39 50.6 1967.29 52.8C1963.19 54.9 1959.89 57.5 1957.39 60.6C1954.89 63.7 1953.14 66.7 1952.14 69.6L1951.99 61.35C1952.09 60.15 1952.49 58.4 1953.19 56.1C1953.89 53.7 1954.94 51.15 1956.34 48.45C1957.74 45.65 1959.59 43 1961.89 40.5C1964.19 37.9 1966.99 35.8 1970.29 34.2C1973.59 32.6 1977.44 31.8 1981.84 31.8V49.5Z" fill="#CDCBD1" fill-opacity="0.04"/>
</svg>
